<svg width="33" height="35" viewBox="0 0 33 35" fill="none" xmlns="http://www.w3.org/2000/svg">
<path d="M18.3893 0.735281C17.8787 0.263095 17.2027 0 16.5 0C15.7973 0 15.1213 0.263095 14.6108 0.735281L1.28975 13.0499C0.881876 13.4275 0.557101 13.8825 0.335326 14.3871C0.11355 14.8918 -0.000554323 15.4354 2.02469e-06 15.9847V30.9677C0.000731052 32.0374 0.43565 33.063 1.20916 33.8191C1.98267 34.5753 3.03146 35 4.125 35H8.25C9.34402 35 10.3932 34.5749 11.1668 33.8182C11.9404 33.0615 12.375 32.0352 12.375 30.9651V24.2402C12.375 23.8834 12.5199 23.5413 12.7777 23.2891C13.0356 23.0369 13.3853 22.8952 13.75 22.8952H19.25C19.6147 22.8952 19.9644 23.0369 20.2223 23.2891C20.4801 23.5413 20.625 23.8834 20.625 24.2402V30.9651C20.625 32.0352 21.0596 33.0615 21.8332 33.8182C22.6068 34.5749 23.656 35 24.75 35H28.875C29.969 35 31.0182 34.5749 31.7918 33.8182C32.5654 33.0615 33 32.0352 33 30.9651V15.982C32.9998 15.4329 32.8851 14.8897 32.6629 14.3856C32.4406 13.8814 32.1155 13.4269 31.7075 13.0499L18.3893 0.729901V0.735281Z" fill="black"/>
</svg>
